<!DOCTYPE svg PUBLIC "-//W3C//DTD SVG 1.1//EN" "http://www.w3.org/Graphics/SVG/1.1/DTD/svg11.dtd">
<!-- Uploaded to: SVG Repo, www.svgrepo.com, Transformed by: SVG Repo Mixer Tools -->
<svg fill="#006380" version="1.1" id="Layer_1" xmlns="http://www.w3.org/2000/svg" xmlns:xlink="http://www.w3.org/1999/xlink" viewBox="0 0 512 512" xml:space="preserve" width="64px" height="64px">
<g id="SVGRepo_bgCarrier" stroke-width="0"/>
<g id="SVGRepo_tracerCarrier" stroke-linecap="round" stroke-linejoin="round"/>
<g id="SVGRepo_iconCarrier"> <g> <g> <g> <path d="M348.817,0H42.667v512h426.667V96.413L348.817,0z M426.667,469.333H85.333V42.667H333.85l92.817,74.253V469.333z"/> <rect x="128" y="298.667" width="64" height="128"/> <rect x="234.667" y="256" width="42.667" height="170.667"/> <rect x="320" y="320" width="64" height="106.667"/> <path d="M149.333,128h64c11.782,0,21.333-9.551,21.333-21.333c0-11.782-9.551-21.333-21.333-21.333h-64 c-11.782,0-21.333,9.551-21.333,21.333C128,118.449,137.551,128,149.333,128z"/> <path d="M277.333,170.667h-128C137.551,170.667,128,180.218,128,192s9.551,21.333,21.333,21.333h128 c11.782,0,21.333-9.551,21.333-21.333S289.115,170.667,277.333,170.667z"/> </g> </g> </g> </g>
</svg>